<svg width="25" height="24" viewBox="0 0 25 24" fill="none" xmlns="http://www.w3.org/2000/svg">
<g id="attach_file_add">
<path id="Vector" d="M11.8333 21.7686C10.441 21.7686 9.25319 21.277 8.26986 20.2936C7.28653 19.3103 6.79486 18.1225 6.79486 16.7302V5.61476C6.79486 4.60996 7.15264 3.74979 7.86819 3.03424C8.58374 2.3187 9.44391 1.96094 10.4487 1.96094C11.4535 1.96094 12.3137 2.3187 13.0293 3.03424C13.7448 3.74979 14.1026 4.60996 14.1026 5.61476V14.1148H13.218V5.61476C13.218 4.83938 12.9501 4.184 12.4144 3.64861C11.8787 3.11323 11.2229 2.84554 10.4471 2.84554C9.67125 2.84554 9.01603 3.11323 8.48141 3.64861C7.94679 4.184 7.67949 4.83938 7.67949 5.61476V16.7302C7.67949 17.8814 8.0855 18.8616 8.89754 19.6705C9.70955 20.4795 10.6857 20.884 11.826 20.884C12.327 20.884 12.7997 20.8016 13.2439 20.6369C13.6881 20.4721 14.0897 20.2417 14.4487 19.9455V21.034C14.0654 21.2686 13.6529 21.4497 13.2113 21.5773C12.7696 21.7048 12.3103 21.7686 11.8333 21.7686ZM16.8333 17.4994H14.3333C14.1917 17.4994 14.0729 17.4514 13.9771 17.3554C13.8813 17.2595 13.8333 17.1406 13.8333 16.9987C13.8333 16.8568 13.8813 16.7382 13.9771 16.6427C14.0729 16.5471 14.1917 16.4994 14.3333 16.4994H16.8333V13.9994C16.8333 13.8577 16.8813 13.739 16.9773 13.6431C17.0732 13.5473 17.1921 13.4994 17.334 13.4994C17.4759 13.4994 17.5946 13.5473 17.6901 13.6431C17.7856 13.739 17.8333 13.8577 17.8333 13.9994V16.4994H20.3333C20.475 16.4994 20.5938 16.5474 20.6896 16.6433C20.7854 16.7393 20.8333 16.8582 20.8333 17.0001C20.8333 17.1419 20.7854 17.2606 20.6896 17.3561C20.5938 17.4516 20.475 17.4994 20.3333 17.4994H17.8333V19.9994C17.8333 20.1411 17.7854 20.2598 17.6894 20.3556C17.5934 20.4515 17.4745 20.4994 17.3327 20.4994C17.1908 20.4994 17.0721 20.4515 16.9766 20.3556C16.8811 20.2598 16.8333 20.1411 16.8333 19.9994V17.4994ZM11.8333 16.9994V17.884C11.1974 17.884 10.6603 17.6647 10.2218 17.2259C9.78334 16.7872 9.56411 16.2501 9.56411 15.6148V6.05709C9.56411 5.9293 9.60579 5.82364 9.68916 5.74009C9.77254 5.65654 9.87799 5.61476 10.0055 5.61476C10.133 5.61476 10.2388 5.65654 10.3228 5.74009C10.4067 5.82364 10.4487 5.9293 10.4487 6.05709V15.6148C10.4487 16.0071 10.5814 16.3359 10.8468 16.6013C11.1122 16.8667 11.441 16.9994 11.8333 16.9994ZM15.9872 11.2302V6.05709C15.9872 5.9293 16.0289 5.82364 16.1122 5.74009C16.1956 5.65654 16.3011 5.61476 16.4286 5.61476C16.5561 5.61476 16.6619 5.65654 16.7458 5.74009C16.8298 5.82364 16.8718 5.9293 16.8718 6.05709V11.2302H15.9872Z" fill="currentColor"/>
</g>
</svg>
