<svg width="24" height="24" viewBox="0 0 24 24" fill="none" xmlns="http://www.w3.org/2000/svg">
<g id="downloading">
<path id="Vector" d="M4.04443 11.9945C4.04443 13.9291 4.65469 15.6342 5.87521 17.1099C7.09573 18.5855 8.64893 19.5079 10.5348 19.8772C10.6694 19.9054 10.7797 19.9733 10.8656 20.081C10.9515 20.1887 10.9944 20.3118 10.9944 20.4503C10.9944 20.5887 10.9412 20.7006 10.8348 20.7858C10.7284 20.8711 10.6098 20.9015 10.4791 20.8772C8.32521 20.5131 6.54764 19.4987 5.14636 17.8339C3.74508 16.1692 3.04443 14.2227 3.04443 11.9945C3.04443 9.76628 3.74924 7.8198 5.15886 6.15505C6.56848 4.4903 8.35021 3.47587 10.5041 3.11177C10.6348 3.08742 10.7534 3.11787 10.8598 3.20312C10.9662 3.28839 11.0194 3.40025 11.0194 3.5387C11.0194 3.67717 10.9765 3.80025 10.8906 3.90795C10.8047 4.01563 10.6944 4.08358 10.5598 4.1118C8.67008 4.48102 7.11175 5.40024 5.88483 6.86947C4.6579 8.33871 4.04443 10.047 4.04443 11.9945ZM12.4944 14.3753L15.2291 11.6406C15.3265 11.5432 15.4432 11.4913 15.5791 11.4849C15.715 11.4785 15.838 11.5304 15.9483 11.6406C16.0585 11.7509 16.1127 11.8708 16.1108 12.0003C16.1089 12.1297 16.0528 12.2496 15.9425 12.3599L12.5598 15.7425C12.3983 15.9041 12.2098 15.9849 11.9944 15.9849C11.7791 15.9849 11.5906 15.9041 11.4291 15.7425L8.03483 12.3426C7.93738 12.2451 7.88642 12.1294 7.88193 11.9955C7.87745 11.8615 7.93033 11.7394 8.04058 11.6291C8.15085 11.5188 8.26977 11.4637 8.39733 11.4637C8.5249 11.4637 8.64381 11.5188 8.75406 11.6291L11.4944 14.3753V8.19255C11.4944 8.05025 11.5422 7.93134 11.6377 7.83582C11.7332 7.74031 11.8521 7.69255 11.9944 7.69255C12.1368 7.69255 12.2557 7.74031 12.3512 7.83582C12.4467 7.93134 12.4944 8.05025 12.4944 8.19255V14.3753ZM16.4675 18.6445C16.5893 18.5586 16.7255 18.5176 16.8762 18.5214C17.0268 18.5253 17.1592 18.5842 17.2733 18.6983C17.3836 18.7958 17.4284 18.9147 17.4079 19.0551C17.3874 19.1955 17.3182 19.3022 17.2002 19.3752C16.6412 19.7471 16.0541 20.0538 15.4387 20.2955C14.8233 20.5371 14.188 20.7246 13.5329 20.858C13.3944 20.8951 13.2701 20.8721 13.1598 20.7887C13.0496 20.7054 12.9944 20.5926 12.9944 20.4503C12.9944 20.308 13.0403 20.1862 13.1319 20.0849C13.2236 19.9836 13.347 19.9105 13.5021 19.8656C14.0355 19.7656 14.5508 19.6118 15.0483 19.4041C15.5457 19.1964 16.0188 18.9432 16.4675 18.6445ZM13.5329 4.14255C13.3906 4.09768 13.2694 4.0214 13.1694 3.9137C13.0694 3.80602 13.0194 3.68102 13.0194 3.5387C13.0194 3.3964 13.0704 3.28358 13.1723 3.20025C13.2743 3.11692 13.3944 3.08742 13.5329 3.11177C14.1919 3.24511 14.83 3.43582 15.4473 3.6839C16.0646 3.93198 16.6528 4.24384 17.2118 4.61947C17.3297 4.70537 17.397 4.81435 17.4137 4.9464C17.4304 5.07845 17.3919 5.19961 17.2983 5.30988C17.188 5.42398 17.0576 5.48294 16.9069 5.48677C16.7563 5.49062 16.6137 5.4496 16.4791 5.3637C16.0303 5.06498 15.5605 4.81498 15.0694 4.6137C14.5784 4.41243 14.0662 4.25538 13.5329 4.14255ZM19.8598 13.508C19.9047 13.3656 19.9787 13.2445 20.0819 13.1445C20.1852 13.0445 20.3079 12.9945 20.4502 12.9945C20.5925 12.9945 20.7063 13.0483 20.7916 13.156C20.8768 13.2637 20.9053 13.3868 20.8771 13.5253C20.7566 14.1842 20.5682 14.8205 20.3118 15.4339C20.0553 16.0474 19.7393 16.6272 19.3637 17.1733C19.2778 17.2913 19.1688 17.3567 19.0368 17.3695C18.9047 17.3823 18.7919 17.3419 18.6983 17.2483C18.588 17.1381 18.53 17.0086 18.5243 16.8599C18.5185 16.7111 18.5585 16.5759 18.6444 16.4541C18.9432 16.0054 19.1954 15.5365 19.4012 15.0474C19.6069 14.5583 19.7598 14.0451 19.8598 13.508ZM18.6637 7.54832C18.5778 7.41371 18.5377 7.2698 18.5435 7.1166C18.5493 6.96338 18.6073 6.83165 18.7175 6.7214C18.8239 6.61498 18.9432 6.57556 19.0752 6.60312C19.2073 6.63069 19.3162 6.70152 19.4021 6.81562C19.756 7.37461 20.0547 7.95634 20.2983 8.56082C20.5419 9.16531 20.7304 9.79704 20.8637 10.456C20.9009 10.5945 20.8768 10.7188 20.7916 10.8291C20.7063 10.9394 20.5925 10.9945 20.4502 10.9945C20.3079 10.9945 20.1852 10.9435 20.0819 10.8416C19.9787 10.7397 19.9047 10.6176 19.8598 10.4753C19.7598 9.94192 19.6101 9.43294 19.4108 8.94832C19.2114 8.46371 18.9624 7.99704 18.6637 7.54832Z" fill="#484848"/>
</g>
</svg>
