<svg width="48" height="48" viewBox="0 0 48 48" fill="none" xmlns="http://www.w3.org/2000/svg">
<g id="error">
<g id="Vector">
<path fill-rule="evenodd" clip-rule="evenodd" d="M24 15C24.5523 15 25 15.4477 25 16V26C25 26.5523 24.5523 27 24 27C23.4477 27 23 26.5523 23 26V16C23 15.4477 23.4477 15 24 15Z" fill="#991616"/>
<path d="M23 32C23 31.4477 23.4477 31 24 31C24.5523 31 25 31.4477 25 32C25 32.5523 24.5523 33 24 33C23.4477 33 23 32.5523 23 32Z" fill="#991616"/>
<path fill-rule="evenodd" clip-rule="evenodd" d="M24 5C13.5066 5 5 13.5066 5 24C5 34.4934 13.5066 43 24 43C34.4934 43 43 34.4934 43 24C43 13.5066 34.4934 5 24 5ZM3 24C3 12.402 12.402 3 24 3C35.598 3 45 12.402 45 24C45 35.598 35.598 45 24 45C12.402 45 3 35.598 3 24Z" fill="#991616"/>
</g>
</g>
</svg>
