<svg width="48" height="48" viewBox="0 0 48 48" fill="none" xmlns="http://www.w3.org/2000/svg">
<circle cx="24" cy="24" r="24" fill="#254DDA"/>
<path fill-rule="evenodd" clip-rule="evenodd" d="M25.7644 25.7645C25.9318 25.5972 26.2032 25.5972 26.3705 25.7645L31.1601 30.5542C31.3275 30.7215 31.3275 30.9929 31.1601 31.1603C30.9928 31.3276 30.7214 31.3276 30.554 31.1603L25.7644 26.3706C25.5971 26.2033 25.5971 25.9319 25.7644 25.7645Z" fill="white"/>
<path fill-rule="evenodd" clip-rule="evenodd" d="M22.2857 17.5715C19.682 17.5715 17.5714 19.6822 17.5714 22.2858C17.5714 24.8894 19.682 27.0001 22.2857 27.0001C24.8893 27.0001 26.9999 24.8894 26.9999 22.2858C26.9999 19.6822 24.8893 17.5715 22.2857 17.5715ZM16.7142 22.2858C16.7142 19.2088 19.2086 16.7144 22.2857 16.7144C25.3627 16.7144 27.8571 19.2088 27.8571 22.2858C27.8571 25.3628 25.3627 27.8572 22.2857 27.8572C19.2086 27.8572 16.7142 25.3628 16.7142 22.2858Z" fill="white"/>
</svg>
