<svg width="24" height="24" viewBox="0 0 24 24" fill="none" xmlns="http://www.w3.org/2000/svg">
<path d="M6.07143 19.2785H10.0275V13.8785C10.0275 13.6351 10.1104 13.4311 10.2763 13.2664C10.4421 13.1018 10.6477 13.0194 10.8929 13.0194H14.1071C14.3523 13.0194 14.5579 13.1018 14.7237 13.2664C14.8896 13.4311 14.9725 13.6351 14.9725 13.8785V19.2785H18.9286V10.0331C18.9286 9.92398 18.9045 9.82512 18.8565 9.73648C18.8084 9.64784 18.7431 9.56944 18.6607 9.50126L12.8915 5.18534C12.7816 5.08988 12.6511 5.04215 12.5 5.04215C12.3489 5.04215 12.2184 5.08988 12.1085 5.18534L6.33929 9.50126C6.25687 9.56944 6.19162 9.64784 6.14354 9.73648C6.09546 9.82512 6.07143 9.92398 6.07143 10.0331V19.2785ZM5 19.2785V10.0331C5 9.76101 5.06129 9.50329 5.18388 9.25989C5.30649 9.01648 5.47596 8.81602 5.6923 8.65851L11.4615 4.32215C11.7635 4.09306 12.1085 3.97852 12.4967 3.97852C12.8849 3.97852 13.2321 4.09306 13.5385 4.32215L19.3077 8.65851C19.524 8.81602 19.6935 9.01648 19.8161 9.25989C19.9387 9.50329 20 9.76101 20 10.0331V19.2785C20 19.5635 19.8932 19.812 19.6796 20.0241C19.466 20.2361 19.2157 20.3422 18.9286 20.3422H14.7665C14.5213 20.3422 14.3158 20.2598 14.1499 20.0952C13.984 19.9305 13.9011 19.7265 13.9011 19.4831V14.0831H11.0989V19.4831C11.0989 19.7265 11.016 19.9305 10.8501 20.0952C10.6842 20.2598 10.4787 20.3422 10.2335 20.3422H6.07143C5.78434 20.3422 5.53399 20.2361 5.32038 20.0241C5.10679 19.812 5 19.5635 5 19.2785Z" fill="currentColor"/>
</svg>
