<?xml version="1.0" encoding="utf-8"?>
<!-- Generator: Adobe Illustrator 28.1.0, SVG Export Plug-In . SVG Version: 6.00 Build 0)  -->
<svg version="1.1" id="Layer_1" xmlns="http://www.w3.org/2000/svg" xmlns:xlink="http://www.w3.org/1999/xlink" x="0px" y="0px"
	 viewBox="0 0 1190.79 312.01" style="enable-background:new 0 0 1190.79 312.01;" xml:space="preserve">
<path d="M741.5,192.23c0,39.51,0,77.73,0,116.31c-11.3,0-22.02,0-33.44,0c0-2.03,0-3.97,0-5.9c0-65.02,0.09-130.04-0.03-195.06
	c-0.08-39.44,17.4-69.15,50.27-89.77c43.57-27.33,102.6-23.51,140.53,9.22c30.42,26.25,42.96,60.23,39.23,100.03
	c-4.55,48.69-37.51,87.74-84.71,99.24c-38.53,9.39-73.69,2.18-103.51-25.35C747.27,198.57,744.99,195.9,741.5,192.23z M823.5,32.47
	c-45.81-0.02-82.06,36.06-82.1,81.7c-0.04,47.12,35.56,83.33,81.94,83.35c46.06,0.01,82.74-36.81,82.36-82.68
	C905.31,68.57,869.3,32.49,823.5,32.47z"/>
<path d="M1002.98,132.75c1.59,19.88,18.07,50.22,52.18,61.07c18.62,5.92,37.36,6.01,56.02,0.2c19.08-5.94,33.2-17.86,41.92-36.17
	c9.84,5.81,19.27,11.39,29.1,17.19c-5.44,10.88-12.68,20.03-21.52,27.92c-19.69,17.59-43.14,25.9-69.18,27.37
	c-33.11,1.87-63.11-6.34-88.11-28.94c-23.64-21.37-35.16-48.76-36.01-80.2c-1.26-46.79,16.1-84.29,58.43-107.35
	c35.61-19.39,88.62-19.19,123.21,10.17c22.6,19.18,35.44,43.87,39.75,72.87c1.72,11.59,1.39,23.48,2.02,35.86
	C1127.46,132.75,1065.24,132.75,1002.98,132.75z M1155.2,99.8c-3.96-32.95-28.57-66.08-72.6-66.67
	c-47.34-0.63-75.99,33.21-80.06,66.67C1053.3,99.8,1104.04,99.8,1155.2,99.8z"/>
<path d="M665.57,226.54c-2.16,0-3.95,0-5.74,0c-35.65,0-71.29,0.04-106.94-0.01c-56.96-0.08-104.45-43.93-109.22-100.77
	C438.14,59.76,490.71,4.27,557.01,6.12c58.05,1.62,105.6,50.04,106.42,108.07C663.95,151.31,664.83,188.42,665.57,226.54z
	 M635.37,116.56c0.05-44.68-36.1-81.1-80.81-81.42c-44.28-0.31-81.14,36.47-81.19,81.01c-0.05,44.76,35.8,80.84,80.79,81.32
	C598.39,197.94,635.33,161.13,635.37,116.56z"/>
<path d="M381.83,151.72c9.7,5.77,18.7,11.13,28,16.67c-5.95,13.44-14.19,25.06-25.33,34.24c-34.7,28.61-74.07,34.67-115.89,20.36
	c-41.31-14.14-65.61-44.37-73.44-87.15c-9.29-50.72,14.14-99.23,58.27-122.65c41.53-22.03,96.88-16.17,130.13,13.78
	c10.7,9.63,18.74,21.11,24.39,35.13c-9.03,5.32-18.13,10.69-27.42,16.16c-0.61-0.89-1.19-1.49-1.49-2.2
	c-10.88-25.56-31.07-38.73-57.73-42.82c-42.31-6.49-81.86,20.3-91.96,61.98c-8.54,35.23,6.44,72,36.82,90.43
	c30.19,18.31,70.51,15.48,95.88-7.52c6.53-5.92,11.27-13.85,16.73-20.93C379.98,155.67,380.71,153.79,381.83,151.72z"/>
<path d="M164.84,49.97c-10.57,6.03-19.91,11.36-29.61,16.89c-3.25-9-7.32-16.88-14.54-22.81c-17.02-13.97-47.46-15.62-65.76-3.36
	c-7.58,5.08-12.41,11.93-13.46,21.19c-1.31,11.52,3.44,20.25,13.67,24.82c10.26,4.59,21.17,7.74,31.87,11.29
	c15.6,5.16,31.8,8.88,46.8,15.39c46.5,20.15,41.67,79.01,6.85,101.66c-19.61,12.76-41.24,16.3-64.01,14.58
	c-20.91-1.58-40.13-7.83-56.08-22.12C10.68,198.62,3.96,187.73,0,174.69c9.55-5.57,18.97-11.06,28.64-16.69
	c0.51,1.13,0.94,1.83,1.16,2.6c6.62,23.09,23.61,33.21,45.91,36.25c12.69,1.73,25.33,0.91,37.33-4.01
	c12.05-4.93,20.44-12.93,21.05-27c0.46-10.51-4.17-18.53-13.27-22.7c-10.66-4.88-22-8.34-33.15-12.08
	c-15.11-5.06-30.8-8.71-45.43-14.88c-47.7-20.11-41.46-78.35-7.8-101.55c34.1-23.5,89.35-18.22,115.27,12.32
	C155.53,33.8,159.7,42.04,164.84,49.97z"/>
</svg>
