<svg width="24" height="24" viewBox="0 0 24 24" fill="none" xmlns="http://www.w3.org/2000/svg">
<g id="heroicons-solid:minus-circle">
<path id="Vector" fill-rule="evenodd" clip-rule="evenodd" d="M12.0004 21.5999C14.5465 21.5999 16.9883 20.5885 18.7886 18.7881C20.589 16.9878 21.6004 14.546 21.6004 11.9999C21.6004 9.45382 20.589 7.01203 18.7886 5.21168C16.9883 3.41133 14.5465 2.3999 12.0004 2.3999C9.45431 2.3999 7.01252 3.41133 5.21217 5.21168C3.41182 7.01203 2.40039 9.45382 2.40039 11.9999C2.40039 14.546 3.41182 16.9878 5.21217 18.7881C7.01252 20.5885 9.45431 21.5999 12.0004 21.5999ZM8.40039 10.7999C8.08213 10.7999 7.77691 10.9263 7.55186 11.1514C7.32682 11.3764 7.20039 11.6816 7.20039 11.9999C7.20039 12.3182 7.32682 12.6234 7.55186 12.8484C7.77691 13.0735 8.08213 13.1999 8.40039 13.1999H15.6004C15.9187 13.1999 16.2239 13.0735 16.4489 12.8484C16.674 12.6234 16.8004 12.3182 16.8004 11.9999C16.8004 11.6816 16.674 11.3764 16.4489 11.1514C16.2239 10.9263 15.9187 10.7999 15.6004 10.7999H8.40039Z" fill="white"/>
</g>
</svg>
