<svg width="48" height="49" viewBox="0 0 48 49" fill="none" xmlns="http://www.w3.org/2000/svg">
<g id="ok-circle">
<g id="Vector">
<path fill-rule="evenodd" clip-rule="evenodd" d="M34.7071 18.1679C35.0976 18.5584 35.0976 19.1916 34.7071 19.5821L20.7071 33.5821C20.3166 33.9726 19.6834 33.9726 19.2929 33.5821L13.2929 27.5821C12.9024 27.1916 12.9024 26.5584 13.2929 26.1679C13.6834 25.7774 14.3166 25.7774 14.7071 26.1679L19.2929 30.7537C19.6834 31.1442 20.3166 31.1442 20.7071 30.7537L33.2929 18.1679C33.6834 17.7774 34.3166 17.7774 34.7071 18.1679Z" fill="#5F7F4C"/>
<path fill-rule="evenodd" clip-rule="evenodd" d="M24 5.875C13.5066 5.875 5 14.3816 5 24.875C5 35.3684 13.5066 43.875 24 43.875C34.4934 43.875 43 35.3684 43 24.875C43 14.3816 34.4934 5.875 24 5.875ZM3 24.875C3 13.277 12.402 3.875 24 3.875C35.598 3.875 45 13.277 45 24.875C45 36.473 35.598 45.875 24 45.875C12.402 45.875 3 36.473 3 24.875Z" fill="#5F7F4C"/>
</g>
</g>
</svg>
