<svg width="25" height="24" viewBox="0 0 25 24" fill="none" xmlns="http://www.w3.org/2000/svg">
<g id="heroicons-solid:plus-circle">
<path id="Vector" fill-rule="evenodd" clip-rule="evenodd" d="M12.6 21.5999C15.1461 21.5999 17.5879 20.5885 19.3882 18.7881C21.1886 16.9878 22.2 14.546 22.2 11.9999C22.2 9.45382 21.1886 7.01203 19.3882 5.21168C17.5879 3.41133 15.1461 2.3999 12.6 2.3999C10.0539 2.3999 7.61212 3.41133 5.81178 5.21168C4.01143 7.01203 3 9.45382 3 11.9999C3 14.546 4.01143 16.9878 5.81178 18.7881C7.61212 20.5885 10.0539 21.5999 12.6 21.5999ZM13.8 8.3999C13.8 8.08164 13.6736 7.77642 13.4485 7.55137C13.2235 7.32633 12.9183 7.1999 12.6 7.1999C12.2817 7.1999 11.9765 7.32633 11.7515 7.55137C11.5264 7.77642 11.4 8.08164 11.4 8.3999V10.7999H9C8.68174 10.7999 8.37652 10.9263 8.15147 11.1514C7.92643 11.3764 7.8 11.6816 7.8 11.9999C7.8 12.3182 7.92643 12.6234 8.15147 12.8484C8.37652 13.0735 8.68174 13.1999 9 13.1999H11.4V15.5999C11.4 15.9182 11.5264 16.2234 11.7515 16.4484C11.9765 16.6735 12.2817 16.7999 12.6 16.7999C12.9183 16.7999 13.2235 16.6735 13.4485 16.4484C13.6736 16.2234 13.8 15.9182 13.8 15.5999V13.1999H16.2C16.5183 13.1999 16.8235 13.0735 17.0485 12.8484C17.2736 12.6234 17.4 12.3182 17.4 11.9999C17.4 11.6816 17.2736 11.3764 17.0485 11.1514C16.8235 10.9263 16.5183 10.7999 16.2 10.7999H13.8V8.3999Z" fill="white"/>
</g>
</svg>
