<svg width="24" height="25" viewBox="0 0 24 25" fill="none" xmlns="http://www.w3.org/2000/svg">
<g id="sign out">
<g id="Vector">
<path fill-rule="evenodd" clip-rule="evenodd" d="M10.6464 9.14645C10.8417 8.95118 11.1583 8.95118 11.3536 9.14645L14.3536 12.1464C14.5488 12.3417 14.5488 12.6583 14.3536 12.8536L11.3536 15.8536C11.1583 16.0488 10.8417 16.0488 10.6464 15.8536C10.4512 15.6583 10.4512 15.3417 10.6464 15.1464L13.2929 12.5L10.6464 9.85355C10.4512 9.65829 10.4512 9.34171 10.6464 9.14645Z" fill="currentColor"/>
<path fill-rule="evenodd" clip-rule="evenodd" d="M4 12.5C4 12.2239 4.22386 12 4.5 12H13C13.2761 12 13.5 12.2239 13.5 12.5C13.5 12.7761 13.2761 13 13 13H4.5C4.22386 13 4 12.7761 4 12.5Z" fill="currentColor"/>
<path fill-rule="evenodd" clip-rule="evenodd" d="M12.5 12.5C12.5 12.2239 12.7239 12 13 12H14C14.2761 12 14.5 12.2239 14.5 12.5C14.5 12.7761 14.2761 13 14 13H13C12.7239 13 12.5 12.7761 12.5 12.5Z" fill="currentColor"/>
<path fill-rule="evenodd" clip-rule="evenodd" d="M6.5 4.5C6.5 4.22386 6.72386 4 7 4H18C18.2761 4 18.5 4.22386 18.5 4.5V20.5C18.5 20.7761 18.2761 21 18 21H7C6.72386 21 6.5 20.7761 6.5 20.5V4.5ZM7.5 5V20H17.5V5H7.5Z" fill="currentColor"/>
</g>
</g>
</svg>
