<svg width="24" height="24" viewBox="0 0 24 24" fill="none" xmlns="http://www.w3.org/2000/svg">
<g id="user">
<g id="Vector">
<path fill-rule="evenodd" clip-rule="evenodd" d="M9.39043 7.56235C8.82483 8.26935 8.5 9.38675 8.5 11C8.5 13.3784 9.20596 14.5161 9.75911 15.1799C9.88498 15.3309 10.0046 15.4593 10.1195 15.5827C10.1375 15.602 10.1553 15.6212 10.173 15.6402C10.2948 15.7714 10.4316 15.9204 10.53 16.0734C10.6329 16.2336 10.7319 16.4555 10.697 16.7244C10.6632 16.9852 10.516 17.1911 10.3536 17.3536C9.97081 17.7363 9.38101 18.1381 8.61782 18.5621C7.84771 18.9899 6.87263 19.4557 5.69696 19.9596C5.44314 20.0683 5.14921 19.9508 5.04043 19.697C4.93165 19.4431 5.04923 19.1492 5.30304 19.0404C6.4607 18.5443 7.40229 18.0934 8.13218 17.6879C8.86899 17.2786 9.36252 16.9304 9.64645 16.6464C9.66218 16.6307 9.67437 16.6174 9.68374 16.6064C9.64067 16.5416 9.56727 16.4575 9.44024 16.3207C9.42405 16.3033 9.40721 16.2852 9.38979 16.2665C9.2753 16.1437 9.13582 15.994 8.99089 15.8201C8.29404 14.9839 7.5 13.6216 7.5 11C7.5 9.27991 7.84183 7.89732 8.60957 6.93765C9.39434 5.95668 10.5563 5.5 12 5.5C13.4437 5.5 14.6057 5.95668 15.3904 6.93765C16.1582 7.89732 16.5 9.27991 16.5 11C16.5 13.6216 15.706 14.9839 15.0091 15.8201C14.8642 15.994 14.7247 16.1437 14.6102 16.2665C14.5928 16.2852 14.5759 16.3033 14.5598 16.3207C14.4327 16.4575 14.3593 16.5417 14.3163 16.6064C14.3256 16.6174 14.3378 16.6307 14.3536 16.6464C14.6375 16.9304 15.131 17.2786 15.8678 17.6879C16.5977 18.0934 17.5393 18.5443 18.697 19.0404C18.9508 19.1492 19.0683 19.4431 18.9596 19.697C18.8508 19.9508 18.5569 20.0683 18.303 19.9596C17.1274 19.4557 16.1523 18.9899 15.3822 18.5621C14.619 18.1381 14.0292 17.7363 13.6464 17.3536C13.484 17.1911 13.3368 16.9852 13.303 16.7244C13.2681 16.4555 13.3671 16.2336 13.47 16.0734C13.5684 15.9204 13.7052 15.7714 13.827 15.6402C13.8447 15.6211 13.8625 15.602 13.8805 15.5827C13.9954 15.4593 14.115 15.3309 14.2409 15.1799C14.794 14.5161 15.5 13.3784 15.5 11C15.5 9.38675 15.1752 8.26935 14.6096 7.56235C14.061 6.87665 13.223 6.5 12 6.5C10.777 6.5 9.93899 6.87665 9.39043 7.56235ZM14.2913 16.6498C14.2911 16.6502 14.2913 16.6498 14.2913 16.6498V16.6498Z" fill="currentColor"/>
<path fill-rule="evenodd" clip-rule="evenodd" d="M12 2.5C6.75329 2.5 2.5 6.75329 2.5 12C2.5 17.2467 6.75329 21.5 12 21.5C17.2467 21.5 21.5 17.2467 21.5 12C21.5 6.75329 17.2467 2.5 12 2.5ZM1.5 12C1.5 6.20101 6.20101 1.5 12 1.5C17.799 1.5 22.5 6.20101 22.5 12C22.5 17.799 17.799 22.5 12 22.5C6.20101 22.5 1.5 17.799 1.5 12Z" fill="currentColor"/>
</g>
</g>
</svg>
