<svg xmlns="http://www.w3.org/2000/svg" width="865.76" height="682.89" viewBox="0 0 865.76 682.89"><rect x="197.99" y="242.63" width="36.87" height="24.89" fill="#1d3b7b"/><rect x="164.81" y="197.47" width="103.23" height="47.01" rx="5.69" fill="#ff3a6f"/><rect x="170.34" y="204.84" width="11.06" height="32.26" rx="5.53" opacity="0.2"/><rect x="190.62" y="204.84" width="11.06" height="32.26" rx="5.53" opacity="0.2"/><rect x="209.05" y="204.84" width="11.06" height="32.26" rx="5.53" opacity="0.2"/><rect x="229.33" y="204.84" width="11.06" height="32.26" rx="5.53" opacity="0.2"/><path d="M178.46,254.62H250.7A17.34,17.34,0,0,1,268,272v37a0,0,0,0,1,0,0H161.13a0,0,0,0,1,0,0V272A17.34,17.34,0,0,1,178.46,254.62Z" fill="#ff3a6f"/><path d="M231,254.62h19.82a17.2,17.2,0,0,1,17.2,17.2V309a0,0,0,0,1,0,0h-55.3a0,0,0,0,1,0,0V272.9A18.28,18.28,0,0,1,231,254.62Z" opacity="0.2"/><path d="M121.49,599.33,115,623.62a4.52,4.52,0,0,1-4.37,3.36H85.47a4.53,4.53,0,0,1-4.53-4.53V572.6l32.16,21.19Z" fill="#1d3b7b"/><path d="M121.49,599.33,115,623.62a4.52,4.52,0,0,1-4.37,3.36h-6.81l9.27-33.19Z" opacity="0.2"/><ellipse cx="212.74" cy="456.93" rx="165.9" ry="167.29" fill="#ff3a6f"/><ellipse cx="212.74" cy="456.93" rx="165.9" ry="167.29" opacity="0.2"/><ellipse cx="196.15" cy="456.01" rx="167.29" ry="165.9" transform="translate(-276.11 608.94) rotate(-84.67)" fill="#ff3a6f"/><ellipse cx="196.15" cy="456.01" rx="145.63" ry="146.84" fill="#fff"/><rect x="248.69" y="204.84" width="11.06" height="32.26" rx="5.53" opacity="0.2"/><path d="M249.61,599.33l6.48,24.29a4.52,4.52,0,0,0,4.38,3.36h25.16a4.53,4.53,0,0,0,4.53-4.53V572.6L258,593.79Z" fill="#1d3b7b"/><path d="M249.61,599.33l6.48,24.29a4.52,4.52,0,0,0,4.38,3.36h6.8L258,593.79Z" opacity="0.2"/><rect x="190.62" y="361.53" width="10.14" height="99.54" rx="5.07" fill="#ff3a6f"/><rect x="215.54" y="443.68" width="10.14" height="73.56" rx="5.07" transform="translate(716.34 664.21) rotate(135)" fill="#1d3b7b"/><rect x="193.39" y="326.51" width="9.22" height="15.67" rx="4.61" fill="#1a1a1a"/><rect x="193.39" y="571.68" width="9.22" height="15.67" rx="4.61" fill="#1a1a1a"/><rect x="71.26" y="449.55" width="9.22" height="15.67" rx="4.61" transform="translate(533.26 381.52) rotate(90)" fill="#1a1a1a"/><rect x="87.85" y="510.39" width="9.22" height="15.67" rx="4.61" transform="translate(495.02 179.04) rotate(60)" fill="#1a1a1a"/><rect x="133.01" y="554.63" width="9.22" height="15.67" rx="4.61" transform="translate(299.67 6.54) rotate(30)" fill="#1a1a1a"/><rect x="254.68" y="554.63" width="9.22" height="15.67" rx="4.61" transform="matrix(-0.82, 0.57, -0.57, -0.82, 792.51, 877.53)" fill="none" stroke="red" stroke-miterlimit="10"/><rect x="87.85" y="387.8" width="9.22" height="15.67" rx="4.61" transform="translate(471.4 542.19) rotate(124.3)" fill="#1a1a1a"/><rect x="132.09" y="343.56" width="9.22" height="15.67" rx="4.61" transform="translate(450.93 559.79) rotate(144.81)" fill="#1a1a1a"/><rect x="254.68" y="343.56" width="9.22" height="15.67" rx="4.61" transform="translate(308.14 785.35) rotate(-150)" fill="none" stroke="red" stroke-miterlimit="10"/><path d="M799.94,596s1.17,21.18,2.6,31.52a8.81,8.81,0,0,0,5.54,7c7.32,2.83,21.44,6.36,26.8-5.71,0,0,2.94-8.8-3.63-19.86A27,27,0,0,0,827,603.6a17.85,17.85,0,0,1-5-10.72s1.14-3-3.12-1.06Z" fill="#ff3a6f"/><path d="M703.08,509.93l4.61,94.93L704,612.23l5.53,10.14s12.91-7.37,23.05-6.45l-6.46-11.06s10.14-83,8.3-107.84Z" fill="#ffb99d"/><path d="M750.09,497.94l51,100.25a14,14,0,0,1,1.53,6.34v6.78s14.74-4.61,24.88-2.76l-7.37-12.91-23-71.89s-5.53-20.28-18.43-28.57Z" fill="#ffb99d"/><path d="M810.92,493.34c-6.54,2.61-11.22,2-13.39,1.39a25,25,0,0,0-5.08-.92l-1.2-.05c-1.22,0-2.39,0-3.52.06a29.62,29.62,0,0,0-12.48,3.94c-.65.37-1.29.76-1.92,1.16-10.9,7-25.08,1.79-25.08,1.79a31.21,31.21,0,0,0-7-.78,34.93,34.93,0,0,0-15.13,3.54c-.57.38-1.13.75-1.68,1.1-26.42,16.74-37,2.59-37,2.59-8.29-5.53-12-6.45-12-6.45,12-22.12,9.22-62.68,9.22-62.68,0-23-5.53-33.18-5.53-33.18-7.38-20.27-5.86-51.94-5.86-51.94l36.27-16.26,27.29-9.09S775.9,355.08,784.19,403c0,0,7.37,49.77,21.2,78.34Z" fill="#1d3b7b"/><path d="M741.25,499.93a34.93,34.93,0,0,0-15.13,3.54c-.57.38-1.13.75-1.68,1.1,3.5-37.29-3.85-103.4-3.85-103.4C732,430.78,738.56,477.1,741.25,499.93Z" opacity="0.2"/><path d="M791.25,493.76c-1.22,0-2.39,0-3.52.06a29.62,29.62,0,0,0-12.48,3.94c-2.92-26.31-14.1-83.69-14.1-83.69Z" opacity="0.2"/><path d="M666.21,358.77s8.56,9.48,7-5.86c0,0-5.2-.59-3.36-7.05,0,0,.08-11.3-24.85-38.37a108.53,108.53,0,0,1,8.16,17.69c3.57,10,4.61,17.82,10.7,29.44C664.86,356.43,665.69,357.87,666.21,358.77Z" fill="#ff3a6f"/><path d="M666.21,358.77s8.56,9.48,7-5.86c0,0-5.2-.59-3.36-7.05,0,0,.08-11.3-24.85-38.37a108.53,108.53,0,0,1,8.16,17.69c3.57,10,4.61,17.82,10.7,29.44C664.86,356.43,665.69,357.87,666.21,358.77Z" opacity="0.2"/><path d="M645.05,307.49s23,24.55,24.85,38.37c0,0-2.76,10.14,9.22,5.53l21.2-7.37L652.39,232.5l2.76-24-4.6-5.53s-17.17,21.31-22.87,10.66l2.2,49.72a67.64,67.64,0,0,0,9.66,32.26c.28.45.57.91.87,1.37A84,84,0,0,1,645.05,307.49Z" fill="#e6e6e6"/><rect x="249.58" y="42.08" width="299.05" height="586.28" rx="28.47" fill="#e2edfd"/><path d="M522.4,51.07a17.27,17.27,0,0,1,17.25,17.25V602.13a17.27,17.27,0,0,1-17.25,17.25H275.82a17.27,17.27,0,0,1-17.26-17.25V68.32a17.27,17.27,0,0,1,17.26-17.25H522.4m0-9H275.82a26.24,26.24,0,0,0-26.24,26.24V602.13a26.23,26.23,0,0,0,26.24,26.23H522.4a26.23,26.23,0,0,0,26.23-26.23V68.32A26.23,26.23,0,0,0,522.4,42.08Z" fill="#1a1a1a"/><path d="M456.11,53.31v8.5h-114v-8.5h114m9.75-9.75H332.35V63.28a8.28,8.28,0,0,0,8.28,8.28h117a8.28,8.28,0,0,0,8.28-8.28V43.56Z" fill="#010000"/><line x1="374.26" y1="55.2" x2="425.45" y2="55.2" fill="none" stroke="#fff" stroke-linecap="round" stroke-linejoin="round" stroke-width="0.76"/><rect x="288.01" y="412.73" width="176.34" height="151.21" rx="7.93" fill="#1d3b7b"/><rect x="312.68" y="433.89" width="44.53" height="44.53" rx="3.15" fill="#fff"/><line x1="372.41" y1="447.94" x2="412.65" y2="447.94" fill="none" stroke="#fff" stroke-linecap="round" stroke-linejoin="round" stroke-width="1.3"/><line x1="368.44" y1="462.27" x2="441.27" y2="462.27" fill="none" stroke="#fff" stroke-linecap="round" stroke-linejoin="round" stroke-width="1.3"/><line x1="312.68" y1="496.96" x2="357.21" y2="496.96" fill="none" stroke="#fff" stroke-linecap="round" stroke-linejoin="round" stroke-width="1.3"/><line x1="312.68" y1="511.75" x2="437.31" y2="511.75" fill="none" stroke="#fff" stroke-linecap="round" stroke-linejoin="round" stroke-width="1.3"/><line x1="312.68" y1="528.06" x2="437.31" y2="528.06" fill="none" stroke="#fff" stroke-linecap="round" stroke-linejoin="round" stroke-width="1.3"/><rect x="284.02" y="115.94" width="230.08" height="151.21" rx="7.93" fill="#fff"/><rect x="302.94" y="152" width="39.04" height="39.04" rx="2.76" fill="#ccc"/><rect x="352.68" y="152" width="39.04" height="39.04" rx="2.76" fill="#ccc"/><rect x="402.42" y="152" width="39.04" height="39.04" rx="2.76" fill="#ccc"/><rect x="452.16" y="152" width="39.04" height="39.04" rx="2.76" fill="#ff3a6f"/><rect x="302.94" y="204.66" width="39.04" height="39.04" rx="2.76" fill="#ccc"/><rect x="352.68" y="204.66" width="39.04" height="39.04" rx="2.76" fill="#ccc"/><rect x="402.42" y="204.66" width="39.04" height="39.04" rx="2.76" fill="#ccc"/><rect x="452.16" y="204.66" width="39.04" height="39.04" rx="2.76" fill="#ccc"/><path d="M307.12,141.82A5.33,5.33,0,0,1,305,139.7a7.39,7.39,0,0,1,0-6.53,5.27,5.27,0,0,1,2.09-2.12,6.39,6.39,0,0,1,6,0,5.18,5.18,0,0,1,2.08,2.12,7.48,7.48,0,0,1,0,6.53,5.24,5.24,0,0,1-2.08,2.12,6.39,6.39,0,0,1-6,0Zm5.64-.29a4.88,4.88,0,0,0,2-1.91,6.25,6.25,0,0,0,.75-3.19,6.19,6.19,0,0,0-.75-3.18,4.84,4.84,0,0,0-2-1.92,5.7,5.7,0,0,0-2.66-.63,5.76,5.76,0,0,0-2.66.63,4.83,4.83,0,0,0-2,1.93,7.1,7.1,0,0,0,0,6.35,4.81,4.81,0,0,0,2,1.92,5.76,5.76,0,0,0,2.66.63A5.7,5.7,0,0,0,312.76,141.53Z" fill="#ff3a6f"/><path d="M320.42,133.16a5.12,5.12,0,0,1,2.05-2.12,5.93,5.93,0,0,1,3-.73,5.75,5.75,0,0,1,3.73,1.16,4.75,4.75,0,0,1,1.76,3h-.44a4.22,4.22,0,0,0-1.66-2.79,6,6,0,0,0-6-.39,4.78,4.78,0,0,0-1.94,1.92,6.39,6.39,0,0,0-.73,3.18,6.46,6.46,0,0,0,.73,3.19,4.81,4.81,0,0,0,1.94,1.91,6,6,0,0,0,6-.39,4.17,4.17,0,0,0,1.66-2.78h.44a4.77,4.77,0,0,1-1.76,3,5.81,5.81,0,0,1-3.73,1.16,5.93,5.93,0,0,1-3-.73,5.18,5.18,0,0,1-2.05-2.12,7.62,7.62,0,0,1,0-6.55Z" fill="#ff3a6f"/><path d="M336.18,130.9v8.36a4.45,4.45,0,0,0,.24,1.66,1.45,1.45,0,0,0,.78.81,3.88,3.88,0,0,0,1.48.23h1.26v.44h-1.3a3,3,0,0,1-2.23-.7,3.51,3.51,0,0,1-.67-2.44V130.9h-1.95v-.44h1.95v-3.05h.44v3.05h3.76v.44Z" fill="#ff3a6f"/><path d="M346.11,141.82A5.4,5.4,0,0,1,344,139.7a7.39,7.39,0,0,1,0-6.53,5.33,5.33,0,0,1,2.09-2.12,6.39,6.39,0,0,1,6,0,5.18,5.18,0,0,1,2.08,2.12,7.39,7.39,0,0,1,0,6.53,5.24,5.24,0,0,1-2.08,2.12,6.39,6.39,0,0,1-6,0Zm5.64-.29a4.88,4.88,0,0,0,2-1.91,6.25,6.25,0,0,0,.75-3.19,6.19,6.19,0,0,0-.75-3.18,4.84,4.84,0,0,0-2-1.92,5.66,5.66,0,0,0-2.65-.63,5.77,5.77,0,0,0-2.67.63,4.89,4.89,0,0,0-2,1.93,7.1,7.1,0,0,0,0,6.35,4.87,4.87,0,0,0,2,1.92,5.77,5.77,0,0,0,2.67.63A5.66,5.66,0,0,0,351.75,141.53Z" fill="#ff3a6f"/><path d="M361.6,131.37a5.48,5.48,0,0,1,3.45-1.06,6.07,6.07,0,0,1,3,.74,5.05,5.05,0,0,1,2.05,2.12,7.67,7.67,0,0,1,0,6.53,5.11,5.11,0,0,1-2.05,2.12,6.18,6.18,0,0,1-3,.74,5.63,5.63,0,0,1-3.48-1.06,5.27,5.27,0,0,1-1.92-2.74v3.64h-.42V126h.42v8.07A5.56,5.56,0,0,1,361.6,131.37Zm8.16,2a4.77,4.77,0,0,0-1.87-2,5.64,5.64,0,0,0-2.84-.69,5.38,5.38,0,0,0-2.78.72,5,5,0,0,0-1.92,2,6.76,6.76,0,0,0,0,6,5,5,0,0,0,1.92,2,5.38,5.38,0,0,0,2.78.72,5.74,5.74,0,0,0,2.84-.68,4.77,4.77,0,0,0,1.87-2,6.71,6.71,0,0,0,.66-3.07A6.64,6.64,0,0,0,369.76,133.37Z" fill="#ff3a6f"/><path d="M383.76,141.14a4.17,4.17,0,0,0,1.66-2.78h.44a4.77,4.77,0,0,1-1.76,3,5.81,5.81,0,0,1-3.73,1.16,5.93,5.93,0,0,1-3-.73,5.18,5.18,0,0,1-2.05-2.12,7.62,7.62,0,0,1,0-6.55,5.12,5.12,0,0,1,2.05-2.12,5.93,5.93,0,0,1,3-.73,5.67,5.67,0,0,1,3,.74,5,5,0,0,1,1.87,1.91,5.16,5.16,0,0,1,.63,2.48c0,.53,0,.93,0,1.19H375.07a6,6,0,0,0,.76,3.08,4.73,4.73,0,0,0,1.93,1.84,5.63,5.63,0,0,0,2.61.61A5.52,5.52,0,0,0,383.76,141.14Zm-6-9.83a4.76,4.76,0,0,0-1.93,1.85,5.94,5.94,0,0,0-.76,3.07h10.39a5.48,5.48,0,0,0-.59-3.07,4.4,4.4,0,0,0-1.9-1.85,5.87,5.87,0,0,0-5.21,0Z" fill="#ff3a6f"/><path d="M395.33,130.2v.48h-.2a4.84,4.84,0,0,0-3.2,1.1,4.32,4.32,0,0,0-1.32,3.52v7.1h-.44V130.46h.44v2.9Q391.33,130.2,395.33,130.2Z" fill="#ff3a6f"/><rect x="363.58" y="281.72" width="150.52" height="98.92" rx="5.19" fill="#fff"/><rect x="382.55" y="292.95" width="115.25" height="22.49" rx="2.76" fill="#1d3b7b"/><line x1="384.05" y1="330.16" x2="436.57" y2="330.16" fill="none" stroke="#000" stroke-linecap="round" stroke-linejoin="round" stroke-width="1.3"/><line x1="384.05" y1="342.95" x2="496.29" y2="342.95" fill="none" stroke="#000" stroke-linecap="round" stroke-linejoin="round" stroke-width="1.3"/><line x1="384.05" y1="357.06" x2="496.29" y2="357.06" fill="none" stroke="#000" stroke-linecap="round" stroke-linejoin="round" stroke-width="1.3"/><rect x="490.94" y="444.93" width="97.2" height="86.83" rx="6.31" fill="#ff3a6f"/><path d="M558.8,484.56l-3.19-.56a16.72,16.72,0,0,0-1.65-4l1.86-2.65a2.46,2.46,0,0,0-.27-3.15l-1.92-1.91a2.44,2.44,0,0,0-3.14-.22L547.84,474a16.49,16.49,0,0,0-4-1.65l-.55-3.26a2.45,2.45,0,0,0-2.37-2h-2.76a2.46,2.46,0,0,0-2.42,2l-.55,3.18a16.32,16.32,0,0,0-4,1.65l-2.65-1.78a2.44,2.44,0,0,0-3.14.27l-1.91,1.91a2.47,2.47,0,0,0-.28,3.15l1.87,2.65a16.49,16.49,0,0,0-1.65,4l-3.19.56a2.45,2.45,0,0,0-2,2.42v2.7a2.45,2.45,0,0,0,2,2.42l3.19.56a16.49,16.49,0,0,0,1.65,4l-1.87,2.65a2.47,2.47,0,0,0,.28,3.15l1.91,1.91a2.44,2.44,0,0,0,3.14.27l2.66-1.86a16.32,16.32,0,0,0,4,1.65l.55,3.18a2.47,2.47,0,0,0,2.43,2h2.74a2.45,2.45,0,0,0,2.42-2l.56-3.18a16.49,16.49,0,0,0,4-1.65l2.59,1.82a2.44,2.44,0,0,0,3.14-.27l1.92-1.91a2.46,2.46,0,0,0,.27-3.15L554,496.63a16.9,16.9,0,0,0,1.65-4l3.19-.56a2.43,2.43,0,0,0,2-2.42V487A2.45,2.45,0,0,0,558.8,484.56ZM539.54,496.8a8.48,8.48,0,1,1,8.48-8.48v.05A8.49,8.49,0,0,1,539.54,496.8Z" fill="#fff"/><path d="M624.74,204.84l2.94,8.82a4.35,4.35,0,0,0,4.31,3c3.54-.19,9.73-2.64,18.56-13.67l-3.61-16.26Z" fill="#f4927c"/><path d="M666.21,358.77s-3.68.92-12.9-18.44c0,0-15.06-36.81-34-62.61a7.82,7.82,0,0,0-7.44-3.07l-38.73,5.77s-1-1-2.43-2.91c-4.44-5.72-13.47-19.4-14.16-36.72,0,0,35-10.14,49.77-18.43,0,0,4.61-6.45,17.52-4.61l3.86-4.09,2.2,49.68a68.27,68.27,0,0,0,9.52,32c.33.54.66,1.09,1,1.64,0,0,20.74,40.1,23,54.38A25,25,0,0,0,666.21,358.77Z" fill="#ff3a6f"/><path d="M619.29,277.72a7.82,7.82,0,0,0-7.44-3.07l-38.73,5.77s-1-1-2.43-2.91l42.07-9.07.92-25.81S615.69,269.49,619.29,277.72Z" opacity="0.2"/><path d="M655.15,208.53l-11.06,10.14s-1.84,2.77,1.85,10.14c0,0,2.76,40.55,14.74,54.38,0,0,30.42,49.77,35,65.44,0,0,3.69,16.59,17.51,6.45,0,0,27.65-16.59,23-33.18l-23-50.69a80.24,80.24,0,0,0,6.45-7.38s-23-57.14-57.14-47.92C662.53,215.91,658.84,205.77,655.15,208.53Z" fill="#ff3a6f"/><line x1="662.53" y1="215.91" x2="650.55" y2="226.04" fill="none" stroke="#000" stroke-miterlimit="10" opacity="0.2"/><path d="M556.55,242.81h-.25a11.18,11.18,0,0,1-7.47-3.26l-38.38-38.38s12.9-25.81,0-37.79c0,0-11.06-13.83-17.51-10.14,0,0-23.26,9.65-13,14,0,0-5.43,6.24,1,6.24,0,0-1.84,8.29,7.38.92,0,0-5.53,24.88,7.37,29.49,0,0,23,51.62,42.4,65.44,0,0,13.36,13.37,28.11,1.39a70.55,70.55,0,0,1-6.45-13.83A69.51,69.51,0,0,1,556.55,242.81Z" fill="#ffb99d"/><path d="M481,176.27s9.16-3.68,11.93-11.06l2.76,4.61s-3.69,11.06,0,21.2c0,0-5.53.92-7.37-16.59C488.33,174.43,482,179.94,481,176.27Z" fill="#f4927c"/><polygon points="523.87 162.2 520.25 162.63 482.49 167.15 481.51 158.92 519.06 154.43 522.88 153.97 523.87 162.2" fill="#ff3a6f"/><polygon points="523.87 162.2 520.25 162.63 519.06 154.43 522.88 153.97 523.87 162.2" opacity="0.2"/><path d="M481.49,158.93l-4.22,3.52v2.76l5.11,1.89a.08.08,0,0,0,.1-.08l-1-8.08S481.5,158.92,481.49,158.93Z" fill="#333"/><polygon points="477.27 162.45 475.42 163.37 475.42 165.21 477.27 165.21 477.27 162.45" fill="#ff3a6f"/><path d="M704,612.23s-31.77,9-33.27,25.36a3,3,0,0,0,3,3.22h58.85V615.92s-7.38-1.84-23.05,6.45Z" fill="#ff3a6f"/><path d="M800.26,604.66s8.72-9.23,22.13-8.66l1.29,3.2s-17.78,2.26-23.1,9.95Z" fill="#ff3a6f"/><path d="M685.57,290.56s18.89-9.68,30.88-22.71l21.66,43.91s6.45,8.3-10.14,14.75l-75.58,22.12s-4.61,7.37-27.65,2.76l-14.44-3.8a4.51,4.51,0,0,1-3.36-4l-1.32-14.46a2.44,2.44,0,0,1,2.43-2.65h15.77l-4.24-7.77a1.63,1.63,0,0,1,1.45-2.41c4.37.1,12.87.91,17.53,5.57l8.3,7.37,49.77-23Z" fill="#ffb99d"/><path d="M625.85,143.06h22.32a0,0,0,0,1,0,0v45.79a20.74,20.74,0,0,1-20.74,20.74h0a20.74,20.74,0,0,1-20.74-20.74V162.21a19.16,19.16,0,0,1,19.16-19.16Z" transform="translate(39.29 -104.48) rotate(9.82)" fill="#ffb99d"/><path d="M624.13,144.18a28.37,28.37,0,0,1-15.68,18.6l-3.59,22.34s-3.88,22.52,21.82,24.35l1,4.19-3.86,4.09s-11.06-2.77-17.52,4.61l-4.42,2.06s-4.79-.22-4.79-3.91c0,0,7.37-4.6,7.37-17.51,0,0-3.69-16.59-.92-30.41,0,0-6.45-30.42,23-33.19,0,0,12-17.51,36.87,3.69,0,0,10.14,10.14,15.67,27.65,0,0,3.68,7.38,14.75,9.22,0,0,15.66,0,17.51,14.75,0,0-5.53-.93-9.22,11.06,0,0,1.25,14.61-21.5,11,0,0-10.76-3.62-18.13-.85,0,0-3.69-10.14-7.38-7.38l-4.41-4.87-3.8-16.92L650.15,175S624.44,163.7,624.13,144.18Z" fill="#473325"/><ellipse cx="651.93" cy="181.34" rx="9.68" ry="6.91" transform="translate(317.01 769.33) rotate(-75.88)" fill="#ffb99d"/><path d="M500.77,181.34c.92-4.61-5.07-11.52-5.07-11.52-6-6.91-4.15-8.76-4.15-8.76s3.69-3.68,8.3,1.85l7.37,12.9" fill="#ffb99d"/><path d="M662.53,251.85,680,289.64S667.14,270.29,662.53,251.85Z" opacity="0.2"/></svg>