<svg width="16" height="16" viewBox="0 0 16 16" fill="none" xmlns="http://www.w3.org/2000/svg">
<rect x="0.5" y="0.5" width="15" height="15" rx="3.5" fill="#3B82F6"/>
<path d="M12.2069 4.793C12.3944 4.98053 12.4997 5.23484 12.4997 5.5C12.4997 5.76516 12.3944 6.01947 12.2069 6.207L7.20692 11.207C7.01939 11.3945 6.76508 11.4998 6.49992 11.4998C6.23475 11.4998 5.98045 11.3945 5.79292 11.207L3.79292 9.207C3.61076 9.0184 3.50997 8.7658 3.51224 8.5036C3.51452 8.2414 3.61969 7.99059 3.8051 7.80518C3.99051 7.61977 4.24132 7.5146 4.50352 7.51233C4.76571 7.51005 5.01832 7.61084 5.20692 7.793L6.49992 9.086L10.7929 4.793C10.9804 4.60553 11.2348 4.50021 11.4999 4.50021C11.7651 4.50021 12.0194 4.60553 12.2069 4.793Z" fill="white"/>
<rect x="0.5" y="0.5" width="15" height="15" rx="3.5" stroke="#3B82F6"/>
</svg>
