<svg width="21" height="20" viewBox="0 0 21 20" fill="none" xmlns="http://www.w3.org/2000/svg">
<path fill-rule="evenodd" clip-rule="evenodd" d="M5.14299 4.29289C5.53352 3.90237 6.16668 3.90237 6.5572 4.29289L10.8501 8.58579L15.143 4.29289C15.5335 3.90237 16.1667 3.90237 16.5572 4.29289C16.9477 4.68342 16.9477 5.31658 16.5572 5.70711L12.2643 10L16.5572 14.2929C16.9477 14.6834 16.9477 15.3166 16.5572 15.7071C16.1667 16.0976 15.5335 16.0976 15.143 15.7071L10.8501 11.4142L6.5572 15.7071C6.16668 16.0976 5.53352 16.0976 5.14299 15.7071C4.75247 15.3166 4.75247 14.6834 5.14299 14.2929L9.43588 10L5.14299 5.70711C4.75247 5.31658 4.75247 4.68342 5.14299 4.29289Z" fill="#111827"/>
</svg>
