<svg width="33" height="33" viewBox="0 0 33 33" fill="none" xmlns="http://www.w3.org/2000/svg">
<g id="Frame" clip-path="url(#clip0_791_10240)">
<path id="Vector" d="M32.3925 23.9424C32.2446 23.5731 31.9561 23.2776 31.5904 23.1211C31.2247 22.9645 30.8118 22.9596 30.4425 23.1074L29.2237 23.5949L25.8412 16.8286C25.7166 16.5796 25.5252 16.3702 25.2883 16.2238C25.0514 16.0775 24.7784 15.9999 24.5 15.9999H15V13.9999H21.5C21.8978 13.9999 22.2793 13.8419 22.5606 13.5606C22.8419 13.2793 23 12.8977 23 12.4999C23 12.1021 22.8419 11.7205 22.5606 11.4392C22.2793 11.1579 21.8978 10.9999 21.5 10.9999H15V10.7424C16.0008 10.3886 16.8443 9.69229 17.3814 8.77668C17.9185 7.86106 18.1147 6.78504 17.9352 5.7388C17.7557 4.69255 17.2121 3.74345 16.4005 3.05924C15.5889 2.37503 14.5615 1.99976 13.5 1.99976C12.4385 1.99976 11.4111 2.37503 10.5995 3.05924C9.78789 3.74345 9.2443 4.69255 9.06479 5.7388C8.88528 6.78504 9.08142 7.86106 9.61854 8.77668C10.1557 9.69229 10.9992 10.3886 12 10.7424V11.3361C10.4148 11.7689 8.96893 12.6054 7.80365 13.7639C6.63838 14.9225 5.79354 16.3635 5.35166 17.9461C4.90977 19.5288 4.88596 21.199 5.28254 22.7936C5.67913 24.3883 6.48255 25.8528 7.61432 27.0441C8.74609 28.2354 10.1675 29.1127 11.7397 29.5905C13.312 30.0682 14.9812 30.13 16.5844 29.7697C18.1877 29.4095 19.67 28.6395 20.8867 27.5351C22.1035 26.4307 23.0129 25.0296 23.5262 23.4686C23.5878 23.2815 23.6119 23.0841 23.5971 22.8876C23.5824 22.6912 23.5291 22.4996 23.4403 22.3237C23.3515 22.1479 23.229 21.9912 23.0796 21.8627C22.9303 21.7343 22.7571 21.6365 22.57 21.5749C22.3829 21.5133 22.1854 21.4892 21.989 21.504C21.7925 21.5187 21.6009 21.572 21.4251 21.6608C21.2492 21.7496 21.0926 21.8722 20.9641 22.0215C20.8356 22.1708 20.7378 22.344 20.6762 22.5311C20.3358 23.5654 19.7411 24.4975 18.9466 25.242C18.1521 25.9865 17.1833 26.5195 16.1291 26.7921C15.075 27.0646 13.9692 27.068 12.9135 26.8019C11.8577 26.5358 10.8856 26.0087 10.0866 25.2691C9.28755 24.5295 8.68711 23.601 8.3404 22.5688C7.99369 21.5367 7.91181 20.434 8.10228 19.362C8.29275 18.2899 8.74947 17.2829 9.4305 16.4334C10.1115 15.5839 10.9951 14.919 12 14.4999V17.4999C12 17.8977 12.158 18.2793 12.4393 18.5606C12.7206 18.8419 13.1022 18.9999 13.5 18.9999H23.5725L27.1575 26.1711C27.3259 26.5076 27.6145 26.7684 27.9662 26.902C28.3179 27.0356 28.707 27.0322 29.0562 26.8924L31.5562 25.8924C31.7392 25.8193 31.906 25.7109 32.047 25.5733C32.1881 25.4357 32.3007 25.2717 32.3783 25.0906C32.456 24.9096 32.4972 24.7149 32.4996 24.5179C32.5021 24.3209 32.4657 24.1253 32.3925 23.9424ZM13.5 4.9999C13.7967 4.9999 14.0867 5.08787 14.3333 5.25269C14.58 5.41751 14.7723 5.65178 14.8858 5.92587C14.9993 6.19996 15.029 6.50156 14.9712 6.79253C14.9133 7.0835 14.7704 7.35078 14.5606 7.56056C14.3509 7.77034 14.0836 7.9132 13.7926 7.97107C13.5016 8.02895 13.2 7.99925 12.926 7.88572C12.6519 7.77218 12.4176 7.57993 12.2528 7.33325C12.088 7.08658 12 6.79657 12 6.4999C12 6.10207 12.158 5.72054 12.4393 5.43924C12.7206 5.15793 13.1022 4.9999 13.5 4.9999Z" fill="white"/>
</g>
<defs>
<clipPath id="clip0_791_10240">
<rect width="32" height="32" fill="white" transform="translate(0.5 0.5)"/>
</clipPath>
</defs>
</svg>
