<svg width="21" height="20" viewBox="0 0 21 20" fill="none" xmlns="http://www.w3.org/2000/svg">
<g clip-path="url(#clip0_836_1881)">
<path d="M7.08704 7.79053H3.33704V4.04053" stroke="#4B5563" stroke-width="1.5" stroke-linecap="round" stroke-linejoin="round"/>
<path d="M5.98869 14.8614C6.95017 15.8228 8.17518 16.4776 9.5088 16.7429C10.8424 17.0082 12.2248 16.872 13.481 16.3517C14.7372 15.8313 15.811 14.9501 16.5664 13.8195C17.3218 12.689 17.725 11.3597 17.725 10C17.725 8.64026 17.3218 7.31105 16.5664 6.18046C15.811 5.04987 14.7372 4.16868 13.481 3.64833C12.2248 3.12798 10.8424 2.99183 9.5088 3.2571C8.17518 3.52238 6.95017 4.17716 5.98869 5.13864L3.33704 7.79029" stroke="#4B5563" stroke-width="1.5" stroke-linecap="round" stroke-linejoin="round"/>
</g>
<defs>
<clipPath id="clip0_836_1881">
<rect width="20" height="20" fill="white" transform="translate(0.850098)"/>
</clipPath>
</defs>
</svg>
